<?xml version="1.0" encoding="utf-8"?>
<!-- Generator: Adobe Illustrator 22.0.0, SVG Export Plug-In . SVG Version: 6.00 Build 0)  -->
<svg version="1.1" baseProfile="tiny" id="Layer_1" xmlns="http://www.w3.org/2000/svg" xmlns:xlink="http://www.w3.org/1999/xlink"
	 x="0px" y="0px" viewBox="0 0 50 50" xml:space="preserve">
<path fill="none" stroke="#231F20" stroke-width="3" stroke-miterlimit="10" d="M39.7,14.2H10.3c-1.1,0-2-0.9-2-2V4c0-1.1,0.9-2,2-2
	h29.5c1.1,0,2,0.9,2,2v8.2C41.7,13.3,40.8,14.2,39.7,14.2z"/>
<path fill="none" stroke="#231F20" stroke-width="3" stroke-miterlimit="10" d="M39.7,31.1H10.3c-1.1,0-2-0.9-2-2v-8.2
	c0-1.1,0.9-2,2-2h29.5c1.1,0,2,0.9,2,2v8.2C41.7,30.2,40.8,31.1,39.7,31.1z"/>
<path fill="none" stroke="#231F20" stroke-width="3" stroke-miterlimit="10" d="M39.7,48H10.3c-1.1,0-2-0.9-2-2v-8.2
	c0-1.1,0.9-2,2-2h29.5c1.1,0,2,0.9,2,2V46C41.7,47.1,40.8,48,39.7,48z"/>
</svg>
